<?xml version="1.0" encoding="UTF-8" standalone="no"?>
<!-- Created with Inkscape (http://www.inkscape.org/) -->

<svg
   xmlns:dc="http://purl.org/dc/elements/1.1/"
   xmlns:cc="http://creativecommons.org/ns#"
   xmlns:rdf="http://www.w3.org/1999/02/22-rdf-syntax-ns#"
   xmlns:svg="http://www.w3.org/2000/svg"
   xmlns="http://www.w3.org/2000/svg"
   xmlns:sodipodi="http://sodipodi.sourceforge.net/DTD/sodipodi-0.dtd"
   xmlns:inkscape="http://www.inkscape.org/namespaces/inkscape"
   version="1.1"
   id="svg3699"
   width="79.109009mm"
   height="13.710399mm"
   viewBox="0 0 298.99468 51.81883"
   sodipodi:docname="logo1.svg"
   inkscape:version="0.92.2 (5c3e80d, 2017-08-06)">
  <metadata
     id="metadata3705">
    <rdf:RDF>
      <cc:Work
         rdf:about="">
        <dc:format>image/svg+xml</dc:format>
        <dc:type
           rdf:resource="http://purl.org/dc/dcmitype/StillImage" />
        <dc:title></dc:title>
      </cc:Work>
    </rdf:RDF>
  </metadata>
  <defs
     id="defs3703" />
  <sodipodi:namedview
     pagecolor="#ffffff"
     bordercolor="#666666"
     borderopacity="1"
     objecttolerance="10"
     gridtolerance="10"
     guidetolerance="10"
     inkscape:pageopacity="0"
     inkscape:pageshadow="2"
     inkscape:window-width="1920"
     inkscape:window-height="1027"
     id="namedview3701"
     showgrid="false"
     inkscape:zoom="4.1601449"
     inkscape:cx="157.25228"
     inkscape:cy="33.196983"
     inkscape:window-x="1352"
     inkscape:window-y="-8"
     inkscape:window-maximized="1"
     inkscape:current-layer="svg3699"
     units="mm"
     fit-margin-top="0"
     fit-margin-left="0"
     fit-margin-right="0"
     fit-margin-bottom="0" />
  <g
     id="g3763"
     transform="matrix(0.93181691,0,0,0.93181691,13.677308,-80.337945)">
    <path
       id="path3733"
       d="m 69.403659,132.60414 c 0.335758,-1.5125 2.512563,-9.95 4.837345,-18.75 l 4.226875,-16 5.660907,-0.297481 5.660907,-0.297481 -3.421658,12.797482 c -1.881911,7.03861 -3.53287,13.47248 -3.668796,14.29748 -0.201132,1.22076 1.391967,1.55394 8.557637,1.78973 7.764513,0.2555 8.744844,0.4918 8.297493,2 -0.27901,0.94065 -0.80245,2.94777 -1.16319,4.46027 l -0.6559,2.75 H 83.264236 68.793188 Z"
       style="fill:#660460;fill-opacity:1"
       inkscape:connector-curvature="0" />
    <path
       id="path3731"
       d="m 104.17461,133.79743 c -2.41817,-1.69374 -2.89674,-5.31496 -1.13699,-8.60309 1.30433,-2.43716 7.73228,-5.37379 13.91448,-6.35687 5.47029,-0.86988 8,-2.10676 8,-3.91153 0,-2.80124 -6.63653,-2.58695 -8.40305,0.27133 -0.49989,0.80884 -8.38316,0.4785 -9.42797,-0.39507 -0.18206,-0.15222 0.13988,-1.15665 0.71542,-2.23207 1.80741,-3.37716 7.27763,-5.21599 15.51673,-5.21599 8.2082,0 11.59887,1.75766 11.59887,6.01266 0,1.10696 -0.9,5.26041 -2,9.2299 -1.1,3.96948 -2,8.46378 -2,9.98734 0,2.61183 -0.25426,2.7701 -4.45031,2.7701 -3.0446,0 -4.73389,-0.50673 -5.34809,-1.60424 -0.82395,-1.47232 -1.15288,-1.47232 -4.00003,0 -3.94088,2.03791 -10.10517,2.06049 -12.97906,0.0475 z"
       style="fill:#660460;fill-opacity:1"
       inkscape:connector-curvature="0" />
    <path
       id="path3729"
       d="m 118.93089,128.86511 c 2.76114,-1.42785 4.84346,-5.02205 3.61896,-6.24655 -0.90365,-0.90365 -8.20831,1.5614 -9.60157,3.24018 -0.98827,1.19079 -0.98749,1.80094 0.004,2.9954 1.55415,1.87263 2.37582,1.87414 5.97879,0.011 z"
       style="fill:#ffffff;fill-opacity:1"
       inkscape:connector-curvature="0" />
    <path
       id="path3727"
       d="m 218.3091,134.42432 c -5.34796,-2.3123 -6.79978,-9.29678 -3.46067,-16.64878 3.36011,-7.39823 10.3494,-10.98039 19.88186,-10.18989 7.2211,0.59883 9.22181,2.85065 9.22181,10.37927 v 5.38922 h -11 c -10.29058,0 -11,0.1275 -11,1.97695 0,1.08732 1.07285,2.6799 2.38412,3.53908 2.17065,1.42226 2.6971,1.41288 5.87962,-0.10476 2.7138,-1.29412 4.36104,-1.45908 7.36588,-0.73765 l 3.87038,0.92923 -4.2195,2.81128 c -3.22225,2.14685 -5.70386,2.90243 -10.5,3.19695 -3.45428,0.21211 -7.24485,-0.0313 -8.4235,-0.5409 z"
       style="fill:#008da9;fill-opacity:1"
       inkscape:connector-curvature="0" />
    <path
       id="path3725"
       d="m 234.9521,117.05414 c 0,-4.9907 -4.59326,-6.19765 -8.54545,-2.24546 -3.66795,3.66795 -3.08002,4.54546 3.04545,4.54546 5.07246,0 5.5,-0.17879 5.5,-2.3 z"
       style="fill:#ffffff;fill-opacity:1"
       inkscape:connector-curvature="0" />
    <path
       id="path3723"
       d="m 246.29004,134.35551 c -4.32275,-1.74317 -3.80744,-7.9137 0.97505,-11.67561 1.35429,-1.06528 6.14054,-2.72728 10.6361,-3.69333 7.39481,-1.58907 8.14408,-1.964 7.86233,-3.93423 -0.39928,-2.79214 -2.9744,-3.26224 -6.96494,-1.2715 -3.30462,1.64856 -10.84648,2.1684 -10.84648,0.74761 0,-1.36904 4.31317,-4.9703 7.3151,-6.1077 3.47955,-1.31836 13.69284,-1.39429 17.02717,-0.12658 3.55212,1.35051 4.04099,5.31754 1.67064,13.55679 -1.1071,3.84825 -2.01291,8.23575 -2.01291,9.75 0,2.59636 -0.25631,2.75318 -4.5,2.75318 -3.33333,0 -4.5,-0.38889 -4.5,-1.5 0,-1.87089 0.19227,-1.89226 -4.5,0.5 -4.12042,2.10071 -8.5346,2.46415 -12.16206,1.00137 z"
       style="fill:#008da9;fill-opacity:1"
       inkscape:connector-curvature="0" />
    <path
       id="path3721"
       d="m 261.31552,128.10414 c 1.36123,-1.2375 2.77222,-3.28009 3.13556,-4.53908 0.60502,-2.09648 0.42251,-2.2314 -2.16919,-1.60357 -6.91496,1.67511 -10.04839,4.07762 -8.97305,6.87991 0.85748,2.23455 5.17507,1.83698 8.00668,-0.73726 z"
       style="fill:#ffffff;fill-opacity:1"
       inkscape:connector-curvature="0" />
    <path
       id="path3719"
       d="m 133.9521,133.70319 c 0,-0.35801 2.09201,-8.68301 4.64892,-18.5 l 4.64892,-17.84905 h 5.41847 c 4.69544,0 5.34783,0.233515 4.8891,1.75 -2.03861,6.73925 -6.60541,24.55364 -6.60541,25.76668 0,1.19583 1.66281,1.48332 8.57946,1.48332 h 8.57945 l -0.69705,3.25 c -0.38338,1.7875 -0.89569,3.5875 -1.13847,4 -0.53938,0.91643 -28.32339,1.0136 -28.32339,0.0991 z"
       style="fill:#008da9;fill-opacity:1"
       inkscape:connector-curvature="0" />
    <path
       id="path3717"
       d="m 168.87014,121.10414 3.62914,-13.25 4.85646,-0.3101 c 4.1581,-0.26551 4.76604,-0.0744 4.22763,1.3286 -0.34585,0.90129 -1.55505,5.31584 -2.68709,9.81011 -4.39956,17.4664 -3.38722,15.67139 -8.83828,15.67139 h -4.817 z"
       style="fill:#008da9;fill-opacity:1"
       inkscape:connector-curvature="0" />
    <path
       id="path3715"
       d="m 182.54208,121.60414 c 1.87124,-7.0125 3.404,-13.0875 3.40614,-13.5 0.002,-0.4125 2.0592,-0.75 4.57127,-0.75 4.11231,0 4.50414,0.19927 3.93261,2 -0.79138,2.49342 -0.35834,2.49386 3.72583,0.004 3.92291,-2.3918 10.027,-2.60805 12.20274,-0.43231 2.35854,2.35854 2.23527,3.41575 -2.52766,21.67857 -0.95905,3.67736 -1.07108,3.75 -5.78304,3.75 h -4.80504 l 2.33052,-8.72736 c 2.08055,-7.7913 2.16822,-8.88964 0.81738,-10.24048 -1.35084,-1.35084 -1.80527,-1.35035 -4.23693,0.005 -2.2386,1.2473 -3.15704,3.07149 -5.1559,10.24048 l -2.43209,8.7229 h -4.72405 -4.72404 z"
       style="fill:#008da9;fill-opacity:1"
       inkscape:connector-curvature="0" />
    <path
       id="path3709"
       d="m 176.9521,102.24539 c 1.925,-1.15569 4.56839,-3.066512 5.87421,-4.246265 l 2.37421,-2.145005 -0.62421,2.25 c -0.34332,1.2375 -0.87953,3.15 -1.1916,4.25 -0.46391,1.63524 -1.42139,1.99932 -5.25,1.99626 l -4.68261,-0.004 z"
       style="fill:#660460;fill-opacity:1"
       inkscape:connector-curvature="0" />
    <path
       id="path3735"
       d="m 35.681917,132.53634 -13.770181,-4.51844 6.130253,-3.87607 c 10.028372,-6.3408 21.293066,-11.61766 30.490137,-14.28286 15.037829,-4.3578 14.994965,-4.53733 2.804072,11.74515 -5.868032,7.8375 -10.942513,14.52015 -11.276624,14.85033 -0.334111,0.33018 -6.804057,-1.43297 -14.377657,-3.91811 z"
       style="fill:#008da9;fill-opacity:1"
       inkscape:connector-curvature="0" />
    <path
       id="path3713"
       d="m 26.165251,107.0728 11.286848,-15.523584 3,1.238101 c 1.65,0.680956 9.425789,3.67456 17.279531,6.652453 7.853743,2.9779 13.478743,5.54527 12.5,5.70528 -17.206823,2.81312 -30.55977,6.58862 -43.729406,12.36435 -4.977569,2.18298 -9.629207,4.22059 -10.336973,4.52802 -0.707767,0.30743 3.792233,-6.42666 10,-14.96462 z"
       style="fill:#008da9;fill-opacity:1"
       inkscape:connector-curvature="0" />
    <path
       inkscape:connector-curvature="0"
       id="path3739"
       d="m 16.595632,121.19841 c 0.494141,-0.95556 4.507836,-6.88869 7.178702,-10.61171 5.354788,-7.46424 13.480974,-18.575397 13.671145,-18.692929 0.114673,-0.07087 2.241811,0.676039 4.726975,1.659799 2.485164,0.983761 7.276797,2.837474 10.648074,4.119362 11.743858,4.465468 17.643073,7.008668 17.021494,7.338118 -0.173439,0.0919 -1.721546,0.40674 -3.440236,0.69958 -4.474183,0.76235 -11.365465,2.25482 -16.105208,3.48797 -9.17932,2.38819 -16.028547,4.81939 -26.561575,9.42828 -3.767898,1.64871 -6.996866,3.05879 -7.175486,3.13352 -0.257756,0.10784 -0.250304,-0.008 0.03611,-0.56199 z"
       style="fill:#660460;fill-opacity:1;stroke-width:0.24037625" />
  </g>
</svg>
